<?xml version="1.0" encoding="UTF-8" standalone="no"?>
<!-- Created with Inkscape (http://www.inkscape.org/) -->

<svg
   version="1.1"
   id="svg1"
   width="125.24455"
   height="131.60928"
   viewBox="0 0 125.24456 131.60929"
   xml:space="preserve"
   xmlns="http://www.w3.org/2000/svg"
   xmlns:svg="http://www.w3.org/2000/svg"><defs
     id="defs1" /><g
     id="g1"
     transform="translate(-19.813711,-15.937234)"><path
       style="fill:#eb2227;fill-opacity:1"
       d="m 66.034922,146.96398 c -2.206336,-0.47205 -6.481336,-1.96283 -9.5,-3.31285 C 23.762977,128.99475 10.158575,86.086513 27.169389,51.032355 37.9359,28.845822 59.452926,15.89028 85.456404,15.937362 c 16.393676,0.02968 28.853566,3.788772 39.698656,11.976896 5.0902,3.843137 5.20044,3.874212 6.93688,1.955468 2.51744,-2.781746 3.4545,-2.423167 3.4545,1.321914 0,5.268521 3.39838,16.0294 6.81668,21.58485 1.74066,2.828929 2.93505,5.143508 2.65421,5.143508 -0.28085,0 -2.18919,-1.055079 -4.24076,-2.34462 -4.97008,-3.124011 -12.33756,-5.421689 -20.03728,-6.248978 l -6.30714,-0.677665 2.66404,-2.780662 2.66404,-2.780661 -4.35689,-3.209032 C 95.411652,25.153688 67.192428,27.076098 49.977591,44.335454 c -9.994487,10.020333 -14.43115,21.882631 -14.43115,38.584544 0,16.056829 4.139569,26.891492 14.132049,36.988402 8.054967,8.13915 17.738397,11.02918 30.254994,9.02964 12.149637,-1.94091 20.770116,-7.50096 27.587596,-17.79347 3.21244,-4.84991 3.75512,-8.08319 1.86472,-11.11019 -0.93918,-1.503873 -0.7315,-2.5984 1.08848,-5.736429 2.13123,-3.674705 2.13794,-3.746925 0.12802,-1.377953 -6.14917,7.247642 -5.90364,7.116532 -12.029415,6.423482 -7.075264,-0.800475 -9.844731,0.490315 -17.295626,8.06113 -5.133754,5.21637 -5.696951,5.51539 -10.388296,5.51539 -2.728144,0 -5.789782,-0.60656 -6.80364,-1.34791 -1.670837,-1.22175 -1.431473,-1.40316 2.557308,-1.93817 3.005264,-0.40309 5.035363,-1.37446 6.402247,-3.06337 1.10086,-1.36022 3.482732,-4.30502 5.293049,-6.544 1.810317,-2.238976 5.297817,-5.246657 7.75,-6.683732 5.214599,-3.055959 5.653037,-4.42282 1.418676,-4.42282 -3.783322,0 -9.664661,2.948664 -12.960162,6.497696 -1.375,1.480783 -3.78323,3.35978 -5.351622,4.175549 -2.226324,1.157977 -2.750108,2.014257 -2.388672,3.904987 0.52535,2.74819 -0.422891,3.135 -2.259706,0.92177 -1.597718,-1.92513 -4.660425,-1.92921 -5.735795,-0.008 -0.689811,1.23263 -1.415894,0.96198 -4.17161,-1.55498 -2.913451,-2.66103 -3.263724,-3.495423 -2.762905,-6.581607 0.796426,-4.9078 2.473564,-6.645134 5.777077,-5.984431 1.725564,0.345112 3.160709,0.01128 3.928458,-0.913798 0.665316,-0.801656 2.195373,-1.457556 3.400129,-1.457556 3.748044,0 12.056295,-10.767629 12.733975,-16.50344 0.528399,-4.47231 4.896658,-7.035437 11.5836,-6.796811 4.921525,0.175626 6.003482,-0.156702 8.959204,-2.751861 3.323226,-2.917829 13.287866,-8.492762 13.287866,-7.434182 0,0.301068 -1.5922,1.945364 -3.53821,3.65399 -4.41673,3.877936 -6.36193,7.087826 -3.73493,6.163206 0.97523,-0.343247 2.89814,-1.628136 4.27314,-2.855308 3.17769,-2.836052 6.9934,-4.815532 7.77532,-4.033613 0.33221,0.332212 -0.38133,1.294188 -1.58565,2.137724 -2.78368,1.949766 -2.92914,5.420295 -0.22718,5.420295 6.34654,0 20.06569,8.447101 23.18483,14.275274 1.08608,2.02935 1.05279,2.027295 -1.65433,-0.102128 -4.42637,-3.481786 -4.71181,-2.554053 -0.99963,3.249022 5.23587,8.18498 8.60365,19.237384 8.65736,28.411794 0.0757,12.92551 -2.13612,19.91246 -3.53473,11.16604 -0.8051,-5.03485 -2.0343,-5.16302 -2.37834,-0.248 -0.62169,8.88165 -4.46751,13.97545 -14.23765,18.85782 -10.23776,5.11605 -17.92995,6.58126 -36.499999,6.95254 -9.35,0.18694 -18.805184,-0.0463 -21.011519,-0.51838 z M 89.595973,78.375173 c 2.321444,-2.100878 1.673137,-3.455175 -1.654003,-3.455175 -2.409699,0 -7.395529,3.943368 -7.395529,5.849235 0,1.417155 6.836737,-0.391508 9.049532,-2.39406 z"
       id="path1" /></g></svg>
